# xmcd CD database file
#
# Track frame offsets:
#	182
#	44310
#	89312
#	128120
#	171472
#	224195
#	244895
#	269645
#
# Disc length: 3825 seconds
#
# Revision: 1
# Processed by: cddbd v1.5.1PL2 Copyright (c) Steve Scherf et al.
# Submitted via: CDex 1.51
#
DISCID=7f0eef08
DTITLE=Kenny Burrell - BEST SELECTION
DYEAR=1900
DGENRE=Jazz
TTITLE0=Birk's work
TTITLE1=Lady be good
TTITLE2=Lover man
TTITLE3=Swingin'
TTITLE4=Hallelujah
TTITLE5=Beef stew blues
TTITLE6=If you could see me now
TTITLE7=36-23-36
EXTD=
EXTT0=
EXTT1=
EXTT2=
EXTT3=
EXTT4=
EXTT5=
EXTT6=
EXTT7=
PLAYORDER=
